<svg width="24" height="24" viewBox="0 0 24 24" fill="none" xmlns="http://www.w3.org/2000/svg">
<g clip-path="url(#clip0_4_5)">
<path d="M23.8634 4.42392C23.7412 4.30174 23.5375 4.26099 23.3746 4.30174L22.5598 4.58691C23.0487 4.01661 23.3746 3.40557 23.5782 2.83527C23.6597 2.63159 23.619 2.46866 23.4967 2.34642C23.3746 2.22423 23.1709 2.18348 23.0079 2.26493C21.8673 2.75378 20.8896 3.16114 20.0749 3.40552C20.0749 3.44627 20.0342 3.40552 19.9934 3.40552C19.3416 3.03891 17.7529 2.22418 16.6124 2.22418C13.7201 2.26493 11.3981 4.7091 11.3981 7.68282V7.84575C7.1616 7.03103 4.83967 5.80894 2.31401 3.1611L1.90674 2.75373L1.66231 3.24259C0.277296 5.89044 1.25495 8.29386 2.84365 9.9233C2.11042 9.80111 1.62157 9.55669 1.17346 9.19007C1.01053 9.06788 0.806846 9.02714 0.603166 9.14933C0.440231 9.23082 0.35874 9.4752 0.399485 9.67888C0.969782 11.5934 2.39555 13.1414 3.9435 14.0784C3.21027 14.0784 2.59923 13.9969 1.98818 13.5895C1.82525 13.508 1.58082 13.508 1.41789 13.6303C1.25495 13.7525 1.17346 13.9561 1.25495 14.1598C1.98818 16.2374 3.41395 17.3372 5.69518 17.6224C4.51384 18.3149 2.96589 18.8852 0.562467 18.9259C0.318041 18.9259 0.11436 19.0889 0.0329163 19.2926C-0.0485748 19.537 0.0329163 19.7407 0.195851 19.9036C1.66236 21.0849 4.9212 21.7775 8.95407 21.7775C16.1236 21.7775 21.9896 15.3819 21.9896 7.51988V7.39769C22.8858 6.94958 23.619 6.09412 23.9856 4.91278C24.0263 4.7498 23.9856 4.54611 23.8634 4.42392ZM21.4192 6.74586L21.1748 6.82735V7.51988C21.1748 14.9338 15.6754 20.9628 8.95402 20.9628C5.24703 20.9628 2.76216 20.3517 1.41789 19.6999C4.22867 19.4962 5.85812 18.6 7.12095 17.6224L8.13935 16.8891H6.91727C4.59533 16.8891 3.16957 16.2374 2.35485 14.6894C3.08808 14.9338 3.86206 14.9338 4.71752 14.8931C5.04339 14.8523 5.36931 14.8523 5.69518 14.8523L5.81737 14.0376C4.26942 13.5895 2.43629 12.2045 1.54008 10.3307C2.3548 10.6973 3.25097 10.7788 4.06569 10.7788H5.32852L4.31016 10.0455C3.45469 9.43445 0.929083 7.27545 2.15117 4.1795C4.75827 6.74586 7.24318 7.92719 11.7241 8.74192L12.213 8.82341V7.68282C12.213 5.1572 14.1683 3.07965 16.6124 3.03891C17.5494 2.99816 19.0974 3.85363 19.5454 4.09805C19.7898 4.22024 20.0343 4.26099 20.2787 4.17955C20.8897 3.97587 21.6229 3.69069 22.4376 3.36482C22.071 3.97587 21.5822 4.54616 20.9304 5.07576C20.7675 5.19795 20.7268 5.44237 20.8082 5.64606C20.8897 5.84974 21.1341 5.93123 21.3378 5.84974L22.9265 5.32019C22.6413 5.84969 22.1932 6.46073 21.4192 6.74586Z" fill="white"/>
</g>
<defs>
<clipPath id="clip0_4_5">
<rect width="24" height="24" fill="white"/>
</clipPath>
</defs>
</svg>
